<svg width="184" height="56" viewBox="0 0 184 56" fill="none" xmlns="http://www.w3.org/2000/svg">
<path d="M77.8279 47H8C4.13401 47 1 43.866 1 40V8C1 4.13401 4.13401 1 8 1H176C179.866 1 183 4.13401 183 8V40C183 43.866 179.866 47 176 47H107.172L117.431 38.3958C123.87 32.9957 120.051 22.5 111.648 22.5H73.3521C64.9485 22.5 61.1298 32.9957 67.5687 38.3958L77.8279 47ZM80.9403 47L68.8539 36.8634C63.8459 32.6633 66.8159 24.5 73.3521 24.5H111.648C118.184 24.5 121.154 32.6633 116.146 36.8634L104.06 47H80.9403ZM83.325 49H101.675L96.9982 52.9223C94.3963 55.1044 90.6037 55.1044 88.0018 52.9223L83.325 49Z" fill="#1EB53A" stroke="#1EB53A" stroke-width="2"/>
</svg>
