<svg width="146" height="56" viewBox="0 0 146 56" fill="none" xmlns="http://www.w3.org/2000/svg">
<mask id="path-1-inside-1_1_4568" fill="white">
<path fill-rule="evenodd" clip-rule="evenodd" d="M8 0C3.58172 0 0 3.58172 0 8V40C0 44.4183 3.58173 48 8 48H61.5765L68.3592 53.6885C71.3327 56.1824 75.6673 56.1824 78.6408 53.6885L85.4235 48H138C142.418 48 146 44.4183 146 40V8C146 3.58172 142.418 0 138 0H8Z"/>
</mask>
<path d="M61.5765 48L62.8617 46.4676L62.3041 46H61.5765V48ZM68.3592 53.6885L69.6444 52.1561L69.6444 52.1561L68.3592 53.6885ZM78.6408 53.6885L77.3556 52.1561L77.3556 52.1561L78.6408 53.6885ZM85.4235 48V46H84.6959L84.1383 46.4676L85.4235 48ZM2 8C2 4.68629 4.68629 2 8 2V-2C2.47715 -2 -2 2.47715 -2 8H2ZM2 40V8H-2V40H2ZM8 46C4.68629 46 2 43.3137 2 40H-2C-2 45.5228 2.47716 50 8 50V46ZM61.5765 46H8V50H61.5765V46ZM60.2913 49.5324L67.074 55.221L69.6444 52.1561L62.8617 46.4676L60.2913 49.5324ZM67.074 55.221C70.7909 58.3382 76.2091 58.3382 79.926 55.221L77.3556 52.1561C75.1254 54.0265 71.8746 54.0265 69.6444 52.1561L67.074 55.221ZM79.926 55.221L86.7087 49.5324L84.1383 46.4676L77.3556 52.1561L79.926 55.221ZM138 46H85.4235V50H138V46ZM144 40C144 43.3137 141.314 46 138 46V50C143.523 50 148 45.5228 148 40H144ZM144 8V40H148V8H144ZM138 2C141.314 2 144 4.68629 144 8H148C148 2.47715 143.523 -2 138 -2V2ZM8 2H138V-2H8V2Z" fill="#7B797E" mask="url(#path-1-inside-1_1_4568)"/>
</svg>
