<svg width="69" height="19" viewBox="0 0 69 19" fill="none" xmlns="http://www.w3.org/2000/svg">
<path d="M66.4977 4.41467L64.8509 14.761C64.8447 14.799 64.847 14.8379 64.8574 14.8749C64.8678 14.912 64.8863 14.9463 64.9114 14.9755C64.9365 15.0047 64.9677 15.028 65.0027 15.0438C65.0378 15.0597 65.0759 15.0677 65.1144 15.0672H67.0633C67.132 15.0678 67.1987 15.0438 67.2513 14.9994C67.3038 14.9551 67.3388 14.8934 67.3498 14.8255L68.9965 4.47911C69.0027 4.44111 69.0005 4.40223 68.99 4.36519C68.9796 4.32814 68.9611 4.29383 68.936 4.26466C68.9109 4.23548 68.8798 4.21215 68.8447 4.1963C68.8096 4.18046 68.7715 4.17247 68.733 4.17291H66.7841C66.7152 4.17154 66.6481 4.19532 66.5954 4.23981C66.5426 4.2843 66.5079 4.34645 66.4977 4.41467ZM64.4166 7.43398H62.5675C62.4989 7.43331 62.4322 7.45729 62.3797 7.50158C62.3272 7.54587 62.2924 7.60752 62.2815 7.67533L62.2203 8.05623C62.2203 8.05623 60.7841 6.49896 58.2413 7.55137C56.7826 8.15392 56.0823 9.39883 55.7843 10.3109C55.7843 10.3109 54.8386 13.0827 56.9775 14.6083C56.9775 14.6083 58.9609 16.0757 61.1942 14.518L61.1556 14.761C61.1466 14.8181 61.1566 14.8765 61.1841 14.9274C61.2115 14.9783 61.2548 15.0187 61.3074 15.0426C61.3423 15.059 61.3805 15.0672 61.4191 15.0672H63.2694C63.3384 15.0686 63.4055 15.0448 63.4582 15.0003C63.5109 14.9558 63.5457 14.8937 63.5559 14.8255L64.6814 7.74018C64.6877 7.70223 64.6855 7.66335 64.6749 7.62637C64.6643 7.58938 64.6456 7.55521 64.6202 7.52633C64.5952 7.4969 64.5639 7.47334 64.5288 7.45731C64.4936 7.44128 64.4553 7.43318 64.4166 7.43357V7.43398ZM61.6957 11.3497C61.6236 11.8448 61.3733 12.2965 60.9918 12.6201C60.6087 12.9449 60.1211 13.1203 59.6188 13.1139C59.4219 13.1162 59.2258 13.0876 59.0376 13.0293C58.2393 12.7748 57.7837 12.0138 57.9146 11.1888C57.9873 10.694 58.2379 10.2427 58.6194 9.91929C59.0022 9.59431 59.4894 9.4184 59.9915 9.42387C60.1885 9.42183 60.3846 9.45064 60.5727 9.50924C61.376 9.76209 61.8295 10.5243 61.6978 11.3501H61.6957V11.3497ZM51.8218 11.5455C52.8245 11.5455 53.7945 11.1892 54.5563 10.5415C55.3165 9.89602 55.8198 8.99915 55.9748 8.01395C56.2986 5.96455 54.686 4.17578 52.3997 4.17578H48.7167C48.648 4.17512 48.5813 4.19916 48.5288 4.24353C48.4763 4.2879 48.4414 4.34965 48.4306 4.41754L46.7835 14.7639C46.7745 14.821 46.7845 14.8794 46.812 14.9303C46.8394 14.9811 46.8827 15.0216 46.9353 15.0455C46.9706 15.0619 47.0084 15.0701 47.047 15.0701H48.997C49.0658 15.0708 49.1325 15.0467 49.185 15.0023C49.2375 14.958 49.2723 14.8962 49.2831 14.8283L49.7666 11.7901C49.7768 11.7219 49.8115 11.6596 49.8642 11.615C49.917 11.5705 49.9841 11.5466 50.0531 11.548L51.8218 11.5455ZM53.453 7.92078C53.3327 8.67848 52.7425 9.23629 51.6133 9.23629H50.1697L50.6081 6.4809H52.0258C53.1931 6.48295 53.5732 7.16636 53.453 7.92283V7.92078Z" fill="#0070E0"/>
<path d="M44.5623 7.60926L42.3319 11.3465L41.1998 7.63676C41.1821 7.57756 41.1456 7.52572 41.0959 7.48907C41.0461 7.45243 40.9858 7.43295 40.924 7.43358H38.9111C38.8591 7.43288 38.8085 7.45102 38.7687 7.48466C38.729 7.5183 38.7027 7.56518 38.6948 7.61665C38.6899 7.65077 38.6934 7.68558 38.7051 7.71803L40.7335 13.9668L38.8988 16.9114C38.8832 16.9357 38.8728 16.9628 38.8681 16.9913C38.8633 17.0197 38.8645 17.0488 38.8714 17.0767C38.8783 17.1047 38.8909 17.131 38.9083 17.1539C38.9257 17.1769 38.9476 17.196 38.9727 17.2102C39.0063 17.2295 39.0444 17.2394 39.0831 17.239H41.2511C41.313 17.2392 41.3739 17.2234 41.4279 17.1932C41.4819 17.163 41.5272 17.1194 41.5594 17.0666L47.2253 7.76277C47.2458 7.73037 47.2571 7.69298 47.2579 7.65463C47.2587 7.61628 47.249 7.57845 47.2298 7.54523C47.2107 7.51189 47.183 7.4843 47.1495 7.46531C47.1161 7.44633 47.0782 7.43665 47.0398 7.43728H44.8726C44.8104 7.43671 44.7491 7.45225 44.6948 7.48239C44.6404 7.51253 44.5947 7.55624 44.5623 7.60926ZM37.7701 7.43358H35.9193C35.8505 7.43293 35.7837 7.45701 35.7311 7.50146C35.6785 7.54591 35.6436 7.60776 35.6328 7.67575L35.5729 8.05625C35.5729 8.05625 34.1355 6.49898 31.5927 7.55139C30.1343 8.15394 29.4337 9.39885 29.1369 10.3109C29.1369 10.3109 28.1904 13.0827 30.3289 14.6084C30.3289 14.6084 32.3126 16.0757 34.5459 14.5181L34.5073 14.761C34.4983 14.8181 34.5082 14.8766 34.5357 14.9275C34.5631 14.9784 34.6065 15.0188 34.6592 15.0426C34.6941 15.059 34.7323 15.0672 34.7708 15.0672H36.6212C36.6899 15.0677 36.7565 15.0436 36.809 14.9993C36.8614 14.955 36.8963 14.8933 36.9073 14.8255L38.0332 7.7402C38.0423 7.68304 38.0324 7.62445 38.005 7.57348C37.9775 7.52252 37.9341 7.48201 37.8813 7.45821C37.8463 7.44209 37.8082 7.43369 37.7696 7.43358H37.7701ZM35.0487 11.3502C34.9759 11.8446 34.7255 12.2956 34.3444 12.6189C33.9615 12.9436 33.4743 13.1194 32.9722 13.1139C32.7756 13.1161 32.5797 13.0875 32.3918 13.0293C31.5939 12.7748 31.1387 12.0139 31.2697 11.1884C31.3426 10.6926 31.5941 10.2404 31.9769 9.91684C32.3611 9.59189 32.8499 9.41681 33.3531 9.42389C33.5502 9.42183 33.7468 9.45056 33.9348 9.50926C34.7298 9.7621 35.1825 10.5239 35.0512 11.3502H35.0491H35.0487ZM25.1752 11.5455C26.1763 11.545 27.1445 11.1887 27.9072 10.5403C28.6667 9.89482 29.1695 8.99826 29.3241 8.01356C29.6484 5.96456 28.0353 4.1758 25.7498 4.1758H22.0664C21.9977 4.17511 21.931 4.19908 21.8784 4.24336C21.8259 4.28764 21.7909 4.3493 21.7799 4.41714L20.1381 14.7606C20.1289 14.8178 20.1388 14.8764 20.1663 14.9273C20.1937 14.9783 20.2372 15.0188 20.29 15.0426C20.3249 15.0586 20.363 15.0672 20.4016 15.0672H22.3505C22.4193 15.0679 22.4861 15.0438 22.5387 14.9994C22.5913 14.9549 22.6261 14.8931 22.637 14.8251L23.1196 11.7869C23.1299 11.7187 23.1646 11.6565 23.2174 11.612C23.2701 11.5675 23.3372 11.5438 23.4061 11.5451H25.1752V11.5455ZM26.8064 7.92039C26.6861 8.67809 26.0963 9.2359 24.9671 9.2359H23.5235L23.9611 6.48051H25.3788C26.5465 6.48256 26.9262 7.16638 26.8064 7.92244V7.92039Z" fill="#003087"/>
<path d="M12.5754 4.70765C12.6193 2.42306 10.7349 0.67041 8.14374 0.67041H2.784C2.6591 0.670351 2.53829 0.714895 2.44332 0.796017C2.34835 0.87714 2.28547 0.989508 2.26601 1.11288L0.118502 14.5319C0.108894 14.5927 0.112578 14.6549 0.129302 14.7141C0.146025 14.7734 0.17539 14.8283 0.215375 14.8751C0.25536 14.9219 0.305015 14.9595 0.360921 14.9853C0.416827 15.0111 0.477656 15.0244 0.539219 15.0245H3.71451L3.21827 18.1316C3.20866 18.1924 3.21234 18.2546 3.22907 18.3138C3.24579 18.3731 3.27515 18.428 3.31514 18.4748C3.35512 18.5216 3.40478 18.5592 3.46068 18.585C3.51659 18.6108 3.57742 18.6241 3.63898 18.6242H6.22568C6.35046 18.6242 6.46169 18.5794 6.55691 18.4986C6.65132 18.4173 6.66692 18.3052 6.68662 18.1817L7.44596 13.7143C7.46525 13.5912 7.52805 13.4311 7.62287 13.3498C7.71768 13.2685 7.8006 13.2242 7.92579 13.2242H9.5085C12.0464 13.2242 14.1992 11.4203 14.5928 8.91154C14.8715 7.13099 14.1081 5.51051 12.5754 4.70724V4.70765Z" fill="#001C64"/>
<path d="M4.40213 10.0756L3.61118 15.0906L3.11453 18.2363C3.10498 18.2971 3.10873 18.3593 3.1255 18.4185C3.14228 18.4777 3.17169 18.5326 3.21172 18.5794C3.25174 18.6262 3.30142 18.6637 3.35734 18.6894C3.41327 18.7152 3.4741 18.7285 3.53566 18.7285H6.2734C6.39818 18.7284 6.51884 18.6838 6.61366 18.6027C6.70847 18.5216 6.77121 18.4092 6.79057 18.286L7.51216 13.7139C7.53161 13.5906 7.59443 13.4783 7.68931 13.3972C7.78419 13.3161 7.90491 13.2715 8.02974 13.2714H9.64119C12.179 13.2714 14.3319 11.4203 14.7259 8.91158C15.005 7.13102 14.1086 5.51054 12.576 4.70728C12.5718 4.89691 12.5554 5.08613 12.5263 5.2737C12.1327 7.78159 9.979 9.63316 7.44197 9.63316H4.91972C4.79485 9.6333 4.67413 9.67797 4.57925 9.75915C4.48438 9.84033 4.42157 9.9527 4.40213 10.076" fill="#0070E0"/>
<path d="M3.61074 15.0902H0.425598C0.364047 15.0902 0.30323 15.0769 0.247339 15.0511C0.191449 15.0253 0.141816 14.9877 0.101862 14.9409C0.0619081 14.8941 0.0325841 14.8391 0.0159119 14.7799C-0.000760203 14.7206 -0.00438379 14.6585 0.00529105 14.5977L2.1528 0.979581C2.17225 0.856277 2.23507 0.743963 2.32995 0.66285C2.42484 0.581736 2.54555 0.537148 2.67038 0.537109H8.14422C10.7354 0.537109 12.6198 2.42274 12.5759 4.70693C11.9311 4.36872 11.1734 4.17539 10.3434 4.17539H5.78C5.6551 4.17533 5.53428 4.21988 5.43931 4.301C5.34434 4.38212 5.28146 4.49449 5.262 4.61786L4.4025 10.0753L3.61033 15.0902H3.61074Z" fill="#003087"/>
</svg>
