<svg width="63" height="22" viewBox="0 0 63 22" fill="none" xmlns="http://www.w3.org/2000/svg">
<path fill-rule="evenodd" clip-rule="evenodd" d="M2.91525 11.6585C3.68556 11.6585 4.55656 11.9824 5.01729 12.6231H5.07485V11.8241H7.16246V18.3963C7.16246 20.5774 5.36288 21.614 3.57755 21.614C1.84289 21.614 0.15113 20.6279 0.136683 18.7779H2.20983C2.26028 19.6055 2.85769 19.9871 3.54888 19.9871C4.23986 19.9871 4.94528 19.5624 4.94528 18.5114V17.5037H4.88771C4.41988 18.0651 3.63511 18.3674 2.91525 18.3674C1.16614 18.3674 0 16.6974 0 14.9914C0 13.2854 1.16614 11.6585 2.91525 11.6585ZM23.6178 11.817V15.5386C23.6178 16.0929 24.0497 16.5392 24.5895 16.5392C25.1293 16.5392 25.5614 16.0929 25.5614 15.5386V11.817H27.7783V15.5026C27.7783 17.3886 26.4826 18.5403 24.5895 18.5403C22.7323 18.5403 21.4006 17.4317 21.4006 15.5026V11.817H23.6178ZM59.5373 11.6441C61.4666 11.6441 63 13.0839 63 15.0994C63 15.2872 62.9826 15.4461 62.9682 15.5493L62.964 15.5817H58.3354C58.4145 16.4238 58.9399 16.899 59.5807 16.899C59.938 16.899 60.3019 16.7548 60.6159 16.4098L60.6603 16.3592H62.7983C62.2441 17.842 60.8908 18.5329 59.5373 18.5329C57.8027 18.5329 56.0749 17.3886 56.0749 15.0994C56.0749 13.0839 57.6082 11.6441 59.5373 11.6441ZM11.719 11.5865C13.7275 11.5865 15.3686 13.0047 15.3686 15.049C15.3686 17.0934 13.7275 18.5114 11.719 18.5114C9.71789 18.5114 8.09834 17.1077 8.09834 15.049C8.09834 12.9903 9.71789 11.5865 11.719 11.5865ZM43.622 7.84342V18.3674H41.5345V17.4964H41.4769C40.9081 18.1371 40.1163 18.497 39.3173 18.497C37.5178 18.497 36.3227 16.8559 36.3227 15.0779C36.3227 13.2999 37.5178 11.6657 39.3173 11.6657C40.0083 11.6657 40.8362 11.9248 41.3473 12.544H41.4049V7.84342H43.622ZM19.4068 7.65628C19.8171 7.65628 20.2418 7.70653 20.609 7.79299V9.58539C20.4434 9.54228 20.3139 9.52049 20.1698 9.52049C19.5724 9.52049 19.0541 9.76544 19.0541 10.5571V11.8241H20.4074V13.6166H19.0541V18.3674H16.8369V13.6166H15.8724V11.8241H16.8369V10.0966C16.8369 8.46236 17.996 7.65628 19.4068 7.65628ZM33.0261 11.6441C34.2498 11.6441 35.387 12.508 35.387 14.1924V18.3674H33.1701V14.6531C33.1701 13.9979 32.7309 13.559 32.1766 13.559C31.6224 13.559 31.1832 14.0124 31.1832 14.6531V18.3674H28.9662V11.8241H31.0536V12.6447H31.1112C31.6079 11.9682 32.3997 11.6441 33.0261 11.6441ZM52.8503 11.6441C54.0235 11.6441 55.1395 12.5224 55.1395 14.1709V18.3674H52.9223V14.574C52.9223 13.9619 52.5191 13.559 52.0153 13.559C51.5041 13.559 51.101 13.9692 51.101 14.574V18.3674H48.884V14.574C48.884 13.9619 48.4809 13.559 47.977 13.559C47.4658 13.559 47.0627 13.9692 47.0627 14.574V18.3674H44.8455V11.8241H46.9331V12.6447H46.9907C47.4299 11.9824 48.1713 11.6514 48.8767 11.6514C49.5605 11.6514 50.2733 12.0113 50.7051 12.7816H50.7627C51.3099 11.9968 52.0944 11.6441 52.8503 11.6441ZM39.958 13.6093C39.1446 13.6093 38.4823 14.2715 38.4823 15.0849C38.4823 15.8984 39.1446 16.5678 39.958 16.5678C40.7714 16.5678 41.4336 15.8984 41.4336 15.0849C41.4336 14.2715 40.7714 13.6093 39.958 13.6093ZM11.7335 13.559C10.9345 13.559 10.2866 14.2211 10.2866 15.049C10.2866 15.8769 10.9345 16.5392 11.7335 16.5392C12.5325 16.5392 13.1803 15.8769 13.1803 15.049C13.1803 14.2211 12.5325 13.559 11.7335 13.559ZM3.57044 13.6093C2.79301 13.6093 2.1596 14.2355 2.1596 15.013C2.1596 15.7904 2.79301 16.4238 3.57044 16.4238C4.34787 16.4238 4.97417 15.7904 4.97417 15.013C4.97417 14.2355 4.34787 13.6093 3.57044 13.6093ZM59.5518 13.271C58.9688 13.271 58.4721 13.6452 58.3065 14.394H60.7612C60.6243 13.6597 60.1349 13.271 59.5518 13.271ZM61.9115 9.61763L62.3204 10.8193L62.7262 9.61763H63V11.0389H62.8157V10.1999C62.8157 10.171 62.8169 10.123 62.8181 10.0559C62.8193 9.98879 62.8199 9.9168 62.8199 9.84007L62.414 11.0389H62.2231L61.8136 9.84007V9.88366C61.8136 9.91854 61.8148 9.97144 61.8166 10.0428C61.8184 10.1142 61.8196 10.1664 61.8196 10.1999V11.0389H61.6353V9.61763H61.9115ZM61.4636 9.61763V9.787H60.9845V11.0389H60.79V9.787H60.3109V9.61763H61.4636ZM31.4999 6.23234C33.9924 6.23234 36.1669 7.58717 37.3315 9.59962H25.6685C26.8331 7.58717 29.0075 6.23234 31.4999 6.23234ZM38.1985 3.00326C38.6305 2.57121 39.3373 2.57121 39.7691 3.00326C40.2012 3.43509 40.2012 4.14184 39.7691 4.5739L38.0952 6.24789C37.6633 6.67969 36.9566 6.67969 36.5245 6.24789L36.4864 6.20784C36.0931 5.77325 36.1058 5.09599 36.5245 4.67725L38.1985 3.00326ZM23.2769 2.96517C23.7115 2.5716 24.3888 2.5843 24.8075 3.00326L26.4817 4.67725C26.9136 5.10907 26.9136 5.81583 26.4817 6.24789C26.0497 6.67969 25.3429 6.67969 24.9111 6.24789L23.2368 4.5739C22.805 4.14184 22.805 3.43509 23.2368 3.00326L23.2769 2.96517ZM31.4859 0L31.5339 0.00103137C32.1228 0.0263843 32.5965 0.515918 32.5965 1.1108V3.47799C32.5965 4.08895 32.0968 4.58879 31.4859 4.58879C30.8751 4.58879 30.3753 4.08895 30.3753 3.47799V1.1108C30.3753 0.499839 30.8751 0 31.4859 0V0Z" fill="#02A95C"/>
</svg>
